<?xml version="1.0" encoding="UTF-8" standalone="no"?>
<!DOCTYPE svg PUBLIC "-//W3C//DTD SVG 1.1//EN"
 "http://www.w3.org/Graphics/SVG/1.1/DTD/svg11.dtd">
<!-- Generated by graphviz version 2.40.1 (20161225.0304)
 -->
<!-- Title: dependencies Pages: 1 -->
<svg width="6639pt" height="284pt"
 viewBox="0.00 0.00 6639.00 284.00" xmlns="http://www.w3.org/2000/svg" xmlns:xlink="http://www.w3.org/1999/xlink">
<g id="graph0" class="graph" transform="scale(1 1) rotate(0) translate(4 280)">
<title>dependencies</title>
<polygon fill="#ffffff" stroke="transparent" points="-4,4 -4,-280 6635,-280 6635,4 -4,4"/>
<text text-anchor="start" x="3294.5091" y="-42.4" font-family="sans-serif" font-weight="bold" font-size="14.00" fill="#000000">Legend</text>
<polygon fill="#ffffb3" stroke="transparent" points="3081.5,-10 3081.5,-30 3101.5,-30 3101.5,-10 3081.5,-10"/>
<text text-anchor="start" x="3105.129" y="-15.4" font-family="sans-serif" font-size="14.00" fill="#000000"> &#160;Declarations</text>
<polygon fill="#8dd3c7" stroke="transparent" points="3194.5,-10 3194.5,-30 3214.5,-30 3214.5,-10 3194.5,-10"/>
<text text-anchor="start" x="3218.2251" y="-15.4" font-family="sans-serif" font-size="14.00" fill="#000000"> &#160;Module</text>
<polygon fill="#80b1d3" stroke="transparent" points="3280.5,-10 3280.5,-30 3300.5,-30 3300.5,-10 3280.5,-10"/>
<text text-anchor="start" x="3304.2812" y="-15.4" font-family="sans-serif" font-size="14.00" fill="#000000"> &#160;Bootstrap</text>
<polygon fill="#fdb462" stroke="transparent" points="3377.5,-10 3377.5,-30 3397.5,-30 3397.5,-10 3377.5,-10"/>
<text text-anchor="start" x="3401.1732" y="-15.4" font-family="sans-serif" font-size="14.00" fill="#000000"> &#160;Providers</text>
<polygon fill="#fb8072" stroke="transparent" points="3473.5,-10 3473.5,-30 3493.5,-30 3493.5,-10 3473.5,-10"/>
<text text-anchor="start" x="3497.2258" y="-15.4" font-family="sans-serif" font-size="14.00" fill="#000000"> &#160;Exports</text>
<g id="clust1" class="cluster">
<title>cluster_AppModule</title>
<polygon fill="none" stroke="#000000" stroke-dasharray="1,5" points="8,-70 8,-268 6623,-268 6623,-70 8,-70"/>
</g>
<g id="clust2" class="cluster">
<title>cluster_AppModule_declarations</title>
<polygon fill="none" stroke="#000000" points="340,-78 340,-130 6615,-130 6615,-78 340,-78"/>
</g>
<g id="clust37" class="cluster">
<title>cluster_AppModule_imports</title>
<polygon fill="none" stroke="#000000" points="188,-78 188,-130 332,-130 332,-78 188,-78"/>
</g>
<g id="clust39" class="cluster">
<title>cluster_AppModule_bootstrap</title>
<polygon fill="none" stroke="#000000" points="3167,-208 3167,-260 3291,-260 3291,-208 3167,-208"/>
</g>
<g id="clust40" class="cluster">
<title>cluster_AppModule_providers</title>
<polygon fill="none" stroke="#000000" points="16,-78 16,-130 180,-130 180,-78 16,-78"/>
</g>
<!-- AppComponent -->
<g id="node1" class="node">
<title>AppComponent</title>
<polygon fill="#ffffb3" stroke="#000000" points="6606.9399,-122 6501.0601,-122 6501.0601,-86 6606.9399,-86 6606.9399,-122"/>
<text text-anchor="middle" x="6554" y="-99.8" font-family="Times,serif" font-size="14.00" fill="#000000">AppComponent</text>
</g>
<!-- AppModule -->
<g id="node35" class="node">
<title>AppModule</title>
<polygon fill="#8dd3c7" stroke="#000000" points="3270.6571,-187 3267.6571,-191 3246.6571,-191 3243.6571,-187 3187.3429,-187 3187.3429,-151 3270.6571,-151 3270.6571,-187"/>
<text text-anchor="middle" x="3229" y="-164.8" font-family="Times,serif" font-size="14.00" fill="#000000">AppModule</text>
</g>
<!-- AppComponent&#45;&gt;AppModule -->
<g id="edge1" class="edge">
<title>AppComponent&#45;&gt;AppModule</title>
<path fill="none" stroke="#000000" d="M6554,-122.3802C6554,-146.2785 6554,-185 6554,-185 6554,-185 3280.7388,-185 3280.7388,-185"/>
<polygon fill="#000000" stroke="#000000" points="3280.7389,-181.5001 3270.7388,-185 3280.7388,-188.5001 3280.7389,-181.5001"/>
</g>
<!-- DatastreamComponent -->
<g id="node2" class="node">
<title>DatastreamComponent</title>
<polygon fill="#ffffb3" stroke="#000000" points="6483.5744,-122 6338.4256,-122 6338.4256,-86 6483.5744,-86 6483.5744,-122"/>
<text text-anchor="middle" x="6411" y="-99.8" font-family="Times,serif" font-size="14.00" fill="#000000">DatastreamComponent</text>
</g>
<!-- DatastreamComponent&#45;&gt;AppModule -->
<g id="edge2" class="edge">
<title>DatastreamComponent&#45;&gt;AppModule</title>
<path fill="none" stroke="#000000" d="M6411,-122.3228C6411,-145.6602 6411,-183 6411,-183 6411,-183 3280.6894,-183 3280.6894,-183"/>
<polygon fill="#000000" stroke="#000000" points="3280.6895,-179.5001 3270.6894,-183 3280.6894,-186.5001 3280.6895,-179.5001"/>
</g>
<!-- DatastreamCreateComponent -->
<g id="node3" class="node">
<title>DatastreamCreateComponent</title>
<polygon fill="#ffffb3" stroke="#000000" points="6320.6064,-122 6139.3936,-122 6139.3936,-86 6320.6064,-86 6320.6064,-122"/>
<text text-anchor="middle" x="6230" y="-99.8" font-family="Times,serif" font-size="14.00" fill="#000000">DatastreamCreateComponent</text>
</g>
<!-- DatastreamCreateComponent&#45;&gt;AppModule -->
<g id="edge3" class="edge">
<title>DatastreamCreateComponent&#45;&gt;AppModule</title>
<path fill="none" stroke="#000000" d="M6230,-122.2479C6230,-145.0179 6230,-181 6230,-181 6230,-181 3280.8502,-181 3280.8502,-181"/>
<polygon fill="#000000" stroke="#000000" points="3280.8502,-177.5001 3270.8502,-181 3280.8502,-184.5001 3280.8502,-177.5001"/>
</g>
<!-- DatastreamDetailComponent -->
<g id="node4" class="node">
<title>DatastreamDetailComponent</title>
<polygon fill="#ffffb3" stroke="#000000" points="6121.7822,-122 5942.2178,-122 5942.2178,-86 6121.7822,-86 6121.7822,-122"/>
<text text-anchor="middle" x="6032" y="-99.8" font-family="Times,serif" font-size="14.00" fill="#000000">DatastreamDetailComponent</text>
</g>
<!-- DatastreamDetailComponent&#45;&gt;AppModule -->
<g id="edge4" class="edge">
<title>DatastreamDetailComponent&#45;&gt;AppModule</title>
<path fill="none" stroke="#000000" d="M6032,-122.1554C6032,-144.3519 6032,-179 6032,-179 6032,-179 3280.7988,-179 3280.7988,-179"/>
<polygon fill="#000000" stroke="#000000" points="3280.7989,-175.5001 3270.7988,-179 3280.7988,-182.5001 3280.7989,-175.5001"/>
</g>
<!-- DatastreamEditComponent -->
<g id="node5" class="node">
<title>DatastreamEditComponent</title>
<polygon fill="#ffffb3" stroke="#000000" points="5924.4087,-122 5755.5913,-122 5755.5913,-86 5924.4087,-86 5924.4087,-122"/>
<text text-anchor="middle" x="5840" y="-99.8" font-family="Times,serif" font-size="14.00" fill="#000000">DatastreamEditComponent</text>
</g>
<!-- DatastreamEditComponent&#45;&gt;AppModule -->
<g id="edge5" class="edge">
<title>DatastreamEditComponent&#45;&gt;AppModule</title>
<path fill="none" stroke="#000000" d="M5840,-122.0449C5840,-143.6623 5840,-177 5840,-177 5840,-177 3280.8045,-177 3280.8045,-177"/>
<polygon fill="#000000" stroke="#000000" points="3280.8046,-173.5001 3270.8045,-177 3280.8045,-180.5001 3280.8046,-173.5001"/>
</g>
<!-- FeatureOfInterestComponent -->
<g id="node6" class="node">
<title>FeatureOfInterestComponent</title>
<polygon fill="#ffffb3" stroke="#000000" points="5738.0534,-122 5557.9466,-122 5557.9466,-86 5738.0534,-86 5738.0534,-122"/>
<text text-anchor="middle" x="5648" y="-99.8" font-family="Times,serif" font-size="14.00" fill="#000000">FeatureOfInterestComponent</text>
</g>
<!-- FeatureOfInterestComponent&#45;&gt;AppModule -->
<g id="edge6" class="edge">
<title>FeatureOfInterestComponent&#45;&gt;AppModule</title>
<path fill="none" stroke="#000000" d="M5648,-122.2843C5648,-143.3211 5648,-175 5648,-175 5648,-175 3280.7314,-175 3280.7314,-175"/>
<polygon fill="#000000" stroke="#000000" points="3280.7315,-171.5001 3270.7314,-175 3280.7314,-178.5001 3280.7315,-171.5001"/>
</g>
<!-- FeatureOfInterestCreateComponent -->
<g id="node7" class="node">
<title>FeatureOfInterestCreateComponent</title>
<polygon fill="#ffffb3" stroke="#000000" points="5540.0854,-122 5323.9146,-122 5323.9146,-86 5540.0854,-86 5540.0854,-122"/>
<text text-anchor="middle" x="5432" y="-99.8" font-family="Times,serif" font-size="14.00" fill="#000000">FeatureOfInterestCreateComponent</text>
</g>
<!-- FeatureOfInterestCreateComponent&#45;&gt;AppModule -->
<g id="edge7" class="edge">
<title>FeatureOfInterestCreateComponent&#45;&gt;AppModule</title>
<path fill="none" stroke="#000000" d="M5432,-122.1289C5432,-142.5724 5432,-173 5432,-173 5432,-173 3281.0407,-173 3281.0407,-173"/>
<polygon fill="#000000" stroke="#000000" points="3281.0407,-169.5001 3271.0407,-173 3281.0407,-176.5001 3281.0407,-169.5001"/>
</g>
<!-- FeatureOfInterestDetailComponent -->
<g id="node8" class="node">
<title>FeatureOfInterestDetailComponent</title>
<polygon fill="#ffffb3" stroke="#000000" points="5306.2612,-122 5091.7388,-122 5091.7388,-86 5306.2612,-86 5306.2612,-122"/>
<text text-anchor="middle" x="5199" y="-99.8" font-family="Times,serif" font-size="14.00" fill="#000000">FeatureOfInterestDetailComponent</text>
</g>
<!-- FeatureOfInterestDetailComponent&#45;&gt;AppModule -->
<g id="edge8" class="edge">
<title>FeatureOfInterestDetailComponent&#45;&gt;AppModule</title>
<path fill="none" stroke="#000000" d="M5199,-122.308C5199,-142.1455 5199,-171 5199,-171 5199,-171 3281.0576,-171 3281.0576,-171"/>
<polygon fill="#000000" stroke="#000000" points="3281.0577,-167.5001 3271.0576,-171 3281.0576,-174.5001 3281.0577,-167.5001"/>
</g>
<!-- FeatureOfInterestEditComponent -->
<g id="node9" class="node">
<title>FeatureOfInterestEditComponent</title>
<polygon fill="#ffffb3" stroke="#000000" points="5073.8876,-122 4870.1124,-122 4870.1124,-86 5073.8876,-86 5073.8876,-122"/>
<text text-anchor="middle" x="4972" y="-99.8" font-family="Times,serif" font-size="14.00" fill="#000000">FeatureOfInterestEditComponent</text>
</g>
<!-- FeatureOfInterestEditComponent&#45;&gt;AppModule -->
<g id="edge9" class="edge">
<title>FeatureOfInterestEditComponent&#45;&gt;AppModule</title>
<path fill="none" stroke="#000000" d="M4972,-122.1061C4972,-141.3391 4972,-169 4972,-169 4972,-169 3280.7932,-169 3280.7932,-169"/>
<polygon fill="#000000" stroke="#000000" points="3280.7932,-165.5001 3270.7932,-169 3280.7932,-172.5001 3280.7932,-165.5001"/>
</g>
<!-- HistoricalLocationComponent -->
<g id="node10" class="node">
<title>HistoricalLocationComponent</title>
<polygon fill="#ffffb3" stroke="#000000" points="4852.299,-122 4665.701,-122 4665.701,-86 4852.299,-86 4852.299,-122"/>
<text text-anchor="middle" x="4759" y="-99.8" font-family="Times,serif" font-size="14.00" fill="#000000">HistoricalLocationComponent</text>
</g>
<!-- HistoricalLocationComponent&#45;&gt;AppModule -->
<g id="edge10" class="edge">
<title>HistoricalLocationComponent&#45;&gt;AppModule</title>
<path fill="none" stroke="#000000" d="M4759,-122.2222C4759,-140.8285 4759,-167 4759,-167 4759,-167 3280.7173,-167 3280.7173,-167"/>
<polygon fill="#000000" stroke="#000000" points="3280.7173,-163.5001 3270.7173,-167 3280.7173,-170.5001 3280.7173,-163.5001"/>
</g>
<!-- HistoricalLocationDetailComponent -->
<g id="node11" class="node">
<title>HistoricalLocationDetailComponent</title>
<polygon fill="#ffffb3" stroke="#000000" points="4648.007,-122 4427.993,-122 4427.993,-86 4648.007,-86 4648.007,-122"/>
<text text-anchor="middle" x="4538" y="-99.8" font-family="Times,serif" font-size="14.00" fill="#000000">HistoricalLocationDetailComponent</text>
</g>
<!-- HistoricalLocationDetailComponent&#45;&gt;AppModule -->
<g id="edge11" class="edge">
<title>HistoricalLocationDetailComponent&#45;&gt;AppModule</title>
<path fill="none" stroke="#000000" d="M4538,-122.302C4538,-140.2699 4538,-165 4538,-165 4538,-165 3280.7032,-165 3280.7032,-165"/>
<polygon fill="#000000" stroke="#000000" points="3280.7033,-161.5001 3270.7032,-165 3280.7032,-168.5001 3280.7033,-161.5001"/>
</g>
<!-- HomeComponent -->
<g id="node12" class="node">
<title>HomeComponent</title>
<polygon fill="#ffffb3" stroke="#000000" points="4409.5451,-122 4294.4549,-122 4294.4549,-86 4409.5451,-86 4409.5451,-122"/>
<text text-anchor="middle" x="4352" y="-99.8" font-family="Times,serif" font-size="14.00" fill="#000000">HomeComponent</text>
</g>
<!-- HomeComponent&#45;&gt;AppModule -->
<g id="edge12" class="edge">
<title>HomeComponent&#45;&gt;AppModule</title>
<path fill="none" stroke="#000000" d="M4352,-122.0225C4352,-139.3734 4352,-163 4352,-163 4352,-163 3280.9734,-163 3280.9734,-163"/>
<polygon fill="#000000" stroke="#000000" points="3280.9734,-159.5001 3270.9734,-163 3280.9733,-166.5001 3280.9734,-159.5001"/>
</g>
<!-- LocationComponent -->
<g id="node13" class="node">
<title>LocationComponent</title>
<polygon fill="#ffffb3" stroke="#000000" points="4276.5954,-122 4145.4046,-122 4145.4046,-86 4276.5954,-86 4276.5954,-122"/>
<text text-anchor="middle" x="4211" y="-99.8" font-family="Times,serif" font-size="14.00" fill="#000000">LocationComponent</text>
</g>
<!-- LocationComponent&#45;&gt;AppModule -->
<g id="edge13" class="edge">
<title>LocationComponent&#45;&gt;AppModule</title>
<path fill="none" stroke="#000000" d="M4211,-122.0352C4211,-138.7344 4211,-161 4211,-161 4211,-161 3280.8812,-161 3280.8812,-161"/>
<polygon fill="#000000" stroke="#000000" points="3280.8812,-157.5001 3270.8812,-161 3280.8811,-164.5001 3280.8812,-157.5001"/>
</g>
<!-- LocationDetailComponent -->
<g id="node14" class="node">
<title>LocationDetailComponent</title>
<polygon fill="#ffffb3" stroke="#000000" points="4127.8033,-122 3962.1967,-122 3962.1967,-86 4127.8033,-86 4127.8033,-122"/>
<text text-anchor="middle" x="4045" y="-99.8" font-family="Times,serif" font-size="14.00" fill="#000000">LocationDetailComponent</text>
</g>
<!-- LocationDetailComponent&#45;&gt;AppModule -->
<g id="edge14" class="edge">
<title>LocationDetailComponent&#45;&gt;AppModule</title>
<path fill="none" stroke="#000000" d="M4045,-122.0091C4045,-138.0494 4045,-159 4045,-159 4045,-159 3280.87,-159 3280.87,-159"/>
<polygon fill="#000000" stroke="#000000" points="3280.87,-155.5001 3270.87,-159 3280.8699,-162.5001 3280.87,-155.5001"/>
</g>
<!-- LocationEditComponent -->
<g id="node15" class="node">
<title>LocationEditComponent</title>
<polygon fill="#ffffb3" stroke="#000000" points="3944.4298,-122 3789.5702,-122 3789.5702,-86 3944.4298,-86 3944.4298,-122"/>
<text text-anchor="middle" x="3867" y="-99.8" font-family="Times,serif" font-size="14.00" fill="#000000">LocationEditComponent</text>
</g>
<!-- LocationEditComponent&#45;&gt;AppModule -->
<g id="edge15" class="edge">
<title>LocationEditComponent&#45;&gt;AppModule</title>
<path fill="none" stroke="#000000" d="M3867,-122.2396C3867,-137.5706 3867,-157 3867,-157 3867,-157 3280.861,-157 3280.861,-157"/>
<polygon fill="#000000" stroke="#000000" points="3280.861,-153.5001 3270.861,-157 3280.8609,-160.5001 3280.861,-153.5001"/>
</g>
<!-- LocationFormComponent -->
<g id="node16" class="node">
<title>LocationFormComponent</title>
<polygon fill="#ffffb3" stroke="#000000" points="3771.9298,-122 3610.0702,-122 3610.0702,-86 3771.9298,-86 3771.9298,-122"/>
<text text-anchor="middle" x="3691" y="-99.8" font-family="Times,serif" font-size="14.00" fill="#000000">LocationFormComponent</text>
</g>
<!-- LocationFormComponent&#45;&gt;AppModule -->
<g id="edge16" class="edge">
<title>LocationFormComponent&#45;&gt;AppModule</title>
<path fill="none" stroke="#000000" d="M3691,-122.1243C3691,-136.7832 3691,-155 3691,-155 3691,-155 3280.8143,-155 3280.8143,-155"/>
<polygon fill="#000000" stroke="#000000" points="3280.8143,-151.5001 3270.8143,-155 3280.8142,-158.5001 3280.8143,-151.5001"/>
</g>
<!-- ObservationComponent -->
<g id="node17" class="node">
<title>ObservationComponent</title>
<polygon fill="#ffffb3" stroke="#000000" points="3591.7548,-122 3442.2452,-122 3442.2452,-86 3591.7548,-86 3591.7548,-122"/>
<text text-anchor="middle" x="3517" y="-99.8" font-family="Times,serif" font-size="14.00" fill="#000000">ObservationComponent</text>
</g>
<!-- ObservationComponent&#45;&gt;AppModule -->
<g id="edge17" class="edge">
<title>ObservationComponent&#45;&gt;AppModule</title>
<path fill="none" stroke="#000000" d="M3517,-122.2458C3517,-136.1772 3517,-153 3517,-153 3517,-153 3280.8777,-153 3280.8777,-153"/>
<polygon fill="#000000" stroke="#000000" points="3280.8777,-149.5001 3270.8777,-153 3280.8776,-156.5001 3280.8777,-149.5001"/>
</g>
<!-- ObservationCreateComponent -->
<g id="node18" class="node">
<title>ObservationCreateComponent</title>
<polygon fill="#ffffb3" stroke="#000000" points="3424.2864,-122 3237.7136,-122 3237.7136,-86 3424.2864,-86 3424.2864,-122"/>
<text text-anchor="middle" x="3331" y="-99.8" font-family="Times,serif" font-size="14.00" fill="#000000">ObservationCreateComponent</text>
</g>
<!-- ObservationCreateComponent&#45;&gt;AppModule -->
<g id="edge18" class="edge">
<title>ObservationCreateComponent&#45;&gt;AppModule</title>
<path fill="none" stroke="#000000" d="M3254.3426,-122.1061C3254.3426,-122.1061 3254.3426,-140.991 3254.3426,-140.991"/>
<polygon fill="#000000" stroke="#000000" points="3250.8426,-140.9909 3254.3426,-150.991 3257.8426,-140.991 3250.8426,-140.9909"/>
</g>
<!-- ObservationDetailComponent -->
<g id="node19" class="node">
<title>ObservationDetailComponent</title>
<polygon fill="#ffffb3" stroke="#000000" points="3219.9622,-122 3036.0378,-122 3036.0378,-86 3219.9622,-86 3219.9622,-122"/>
<text text-anchor="middle" x="3128" y="-99.8" font-family="Times,serif" font-size="14.00" fill="#000000">ObservationDetailComponent</text>
</g>
<!-- ObservationDetailComponent&#45;&gt;AppModule -->
<g id="edge19" class="edge">
<title>ObservationDetailComponent&#45;&gt;AppModule</title>
<path fill="none" stroke="#000000" d="M3203.5765,-122.1061C3203.5765,-122.1061 3203.5765,-140.991 3203.5765,-140.991"/>
<polygon fill="#000000" stroke="#000000" points="3200.0765,-140.9909 3203.5765,-150.991 3207.0765,-140.991 3200.0765,-140.9909"/>
</g>
<!-- ObservationEditComponent -->
<g id="node20" class="node">
<title>ObservationEditComponent</title>
<polygon fill="#ffffb3" stroke="#000000" points="3017.5884,-122 2844.4116,-122 2844.4116,-86 3017.5884,-86 3017.5884,-122"/>
<text text-anchor="middle" x="2931" y="-99.8" font-family="Times,serif" font-size="14.00" fill="#000000">ObservationEditComponent</text>
</g>
<!-- ObservationEditComponent&#45;&gt;AppModule -->
<g id="edge20" class="edge">
<title>ObservationEditComponent&#45;&gt;AppModule</title>
<path fill="none" stroke="#000000" d="M2931,-122.2458C2931,-136.1772 2931,-153 2931,-153 2931,-153 3177.2506,-153 3177.2506,-153"/>
<polygon fill="#000000" stroke="#000000" points="3177.2506,-156.5001 3187.2506,-153 3177.2506,-149.5001 3177.2506,-156.5001"/>
</g>
<!-- ObservedPropertyComponent -->
<g id="node21" class="node">
<title>ObservedPropertyComponent</title>
<polygon fill="#ffffb3" stroke="#000000" points="2826.6825,-122 2643.3175,-122 2643.3175,-86 2826.6825,-86 2826.6825,-122"/>
<text text-anchor="middle" x="2735" y="-99.8" font-family="Times,serif" font-size="14.00" fill="#000000">ObservedPropertyComponent</text>
</g>
<!-- ObservedPropertyComponent&#45;&gt;AppModule -->
<g id="edge21" class="edge">
<title>ObservedPropertyComponent&#45;&gt;AppModule</title>
<path fill="none" stroke="#000000" d="M2735,-122.1243C2735,-136.7832 2735,-155 2735,-155 2735,-155 3177.3076,-155 3177.3076,-155"/>
<polygon fill="#000000" stroke="#000000" points="3177.3076,-158.5001 3187.3076,-155 3177.3076,-151.5001 3177.3076,-158.5001"/>
</g>
<!-- ObservedPropertyCreateComponent -->
<g id="node22" class="node">
<title>ObservedPropertyCreateComponent</title>
<polygon fill="#ffffb3" stroke="#000000" points="2625.7142,-122 2406.2858,-122 2406.2858,-86 2625.7142,-86 2625.7142,-122"/>
<text text-anchor="middle" x="2516" y="-99.8" font-family="Times,serif" font-size="14.00" fill="#000000">ObservedPropertyCreateComponent</text>
</g>
<!-- ObservedPropertyCreateComponent&#45;&gt;AppModule -->
<g id="edge22" class="edge">
<title>ObservedPropertyCreateComponent&#45;&gt;AppModule</title>
<path fill="none" stroke="#000000" d="M2516,-122.2396C2516,-137.5706 2516,-157 2516,-157 2516,-157 3177.3227,-157 3177.3227,-157"/>
<polygon fill="#000000" stroke="#000000" points="3177.3228,-160.5001 3187.3227,-157 3177.3227,-153.5001 3177.3228,-160.5001"/>
</g>
<!-- ObservedPropertyDetailComponent -->
<g id="node23" class="node">
<title>ObservedPropertyDetailComponent</title>
<polygon fill="#ffffb3" stroke="#000000" points="2387.8904,-122 2170.1096,-122 2170.1096,-86 2387.8904,-86 2387.8904,-122"/>
<text text-anchor="middle" x="2279" y="-99.8" font-family="Times,serif" font-size="14.00" fill="#000000">ObservedPropertyDetailComponent</text>
</g>
<!-- ObservedPropertyDetailComponent&#45;&gt;AppModule -->
<g id="edge23" class="edge">
<title>ObservedPropertyDetailComponent&#45;&gt;AppModule</title>
<path fill="none" stroke="#000000" d="M2279,-122.0091C2279,-138.0494 2279,-159 2279,-159 2279,-159 3177.2619,-159 3177.2619,-159"/>
<polygon fill="#000000" stroke="#000000" points="3177.2619,-162.5001 3187.2619,-159 3177.2618,-155.5001 3177.2619,-162.5001"/>
</g>
<!-- ObservedPropertyEditComponent -->
<g id="node24" class="node">
<title>ObservedPropertyEditComponent</title>
<polygon fill="#ffffb3" stroke="#000000" points="2152.0168,-122 1945.9832,-122 1945.9832,-86 2152.0168,-86 2152.0168,-122"/>
<text text-anchor="middle" x="2049" y="-99.8" font-family="Times,serif" font-size="14.00" fill="#000000">ObservedPropertyEditComponent</text>
</g>
<!-- ObservedPropertyEditComponent&#45;&gt;AppModule -->
<g id="edge24" class="edge">
<title>ObservedPropertyEditComponent&#45;&gt;AppModule</title>
<path fill="none" stroke="#000000" d="M2049,-122.0352C2049,-138.7344 2049,-161 2049,-161 2049,-161 3177.0032,-161 3177.0032,-161"/>
<polygon fill="#000000" stroke="#000000" points="3177.0032,-164.5001 3187.0032,-161 3177.0031,-157.5001 3177.0032,-164.5001"/>
</g>
<!-- SensorComponent -->
<g id="node25" class="node">
<title>SensorComponent</title>
<polygon fill="#ffffb3" stroke="#000000" points="1927.9356,-122 1808.0644,-122 1808.0644,-86 1927.9356,-86 1927.9356,-122"/>
<text text-anchor="middle" x="1868" y="-99.8" font-family="Times,serif" font-size="14.00" fill="#000000">SensorComponent</text>
</g>
<!-- SensorComponent&#45;&gt;AppModule -->
<g id="edge25" class="edge">
<title>SensorComponent&#45;&gt;AppModule</title>
<path fill="none" stroke="#000000" d="M1868,-122.0225C1868,-139.3734 1868,-163 1868,-163 1868,-163 3177.151,-163 3177.151,-163"/>
<polygon fill="#000000" stroke="#000000" points="3177.151,-166.5001 3187.151,-163 3177.1509,-159.5001 3177.151,-166.5001"/>
</g>
<!-- SensorConnectComponent -->
<g id="node26" class="node">
<title>SensorConnectComponent</title>
<polygon fill="#ffffb3" stroke="#000000" points="1790.0912,-122 1623.9088,-122 1623.9088,-86 1790.0912,-86 1790.0912,-122"/>
<text text-anchor="middle" x="1707" y="-99.8" font-family="Times,serif" font-size="14.00" fill="#000000">SensorConnectComponent</text>
</g>
<!-- SensorConnectComponent&#45;&gt;AppModule -->
<g id="edge26" class="edge">
<title>SensorConnectComponent&#45;&gt;AppModule</title>
<path fill="none" stroke="#000000" d="M1707,-122.302C1707,-140.2699 1707,-165 1707,-165 1707,-165 3177.1035,-165 3177.1035,-165"/>
<polygon fill="#000000" stroke="#000000" points="3177.1036,-168.5001 3187.1035,-165 3177.1035,-161.5001 3177.1036,-168.5001"/>
</g>
<!-- SensorCreateComponent -->
<g id="node27" class="node">
<title>SensorCreateComponent</title>
<polygon fill="#ffffb3" stroke="#000000" points="1605.9664,-122 1450.0336,-122 1450.0336,-86 1605.9664,-86 1605.9664,-122"/>
<text text-anchor="middle" x="1528" y="-99.8" font-family="Times,serif" font-size="14.00" fill="#000000">SensorCreateComponent</text>
</g>
<!-- SensorCreateComponent&#45;&gt;AppModule -->
<g id="edge27" class="edge">
<title>SensorCreateComponent&#45;&gt;AppModule</title>
<path fill="none" stroke="#000000" d="M1528,-122.2222C1528,-140.8285 1528,-167 1528,-167 1528,-167 3176.9526,-167 3176.9526,-167"/>
<polygon fill="#000000" stroke="#000000" points="3176.9526,-170.5001 3186.9526,-167 3176.9525,-163.5001 3176.9526,-170.5001"/>
</g>
<!-- SensorDetailComponent -->
<g id="node28" class="node">
<title>SensorDetailComponent</title>
<polygon fill="#ffffb3" stroke="#000000" points="1431.6428,-122 1278.3572,-122 1278.3572,-86 1431.6428,-86 1431.6428,-122"/>
<text text-anchor="middle" x="1355" y="-99.8" font-family="Times,serif" font-size="14.00" fill="#000000">SensorDetailComponent</text>
</g>
<!-- SensorDetailComponent&#45;&gt;AppModule -->
<g id="edge28" class="edge">
<title>SensorDetailComponent&#45;&gt;AppModule</title>
<path fill="none" stroke="#000000" d="M1355,-122.1061C1355,-141.3391 1355,-169 1355,-169 1355,-169 3177.2314,-169 3177.2314,-169"/>
<polygon fill="#000000" stroke="#000000" points="3177.2314,-172.5001 3187.2314,-169 3177.2313,-165.5001 3177.2314,-172.5001"/>
</g>
<!-- SensorEditComponent -->
<g id="node29" class="node">
<title>SensorEditComponent</title>
<polygon fill="#ffffb3" stroke="#000000" points="1260.2688,-122 1117.7312,-122 1117.7312,-86 1260.2688,-86 1260.2688,-122"/>
<text text-anchor="middle" x="1189" y="-99.8" font-family="Times,serif" font-size="14.00" fill="#000000">SensorEditComponent</text>
</g>
<!-- SensorEditComponent&#45;&gt;AppModule -->
<g id="edge29" class="edge">
<title>SensorEditComponent&#45;&gt;AppModule</title>
<path fill="none" stroke="#000000" d="M1189,-122.308C1189,-142.1455 1189,-171 1189,-171 1189,-171 3177.3258,-171 3177.3258,-171"/>
<polygon fill="#000000" stroke="#000000" points="3177.3258,-174.5001 3187.3258,-171 3177.3258,-167.5001 3177.3258,-174.5001"/>
</g>
<!-- ThingComponent -->
<g id="node30" class="node">
<title>ThingComponent</title>
<polygon fill="#ffffb3" stroke="#000000" points="1099.2758,-122 984.7242,-122 984.7242,-86 1099.2758,-86 1099.2758,-122"/>
<text text-anchor="middle" x="1042" y="-99.8" font-family="Times,serif" font-size="14.00" fill="#000000">ThingComponent</text>
</g>
<!-- ThingComponent&#45;&gt;AppModule -->
<g id="edge30" class="edge">
<title>ThingComponent&#45;&gt;AppModule</title>
<path fill="none" stroke="#000000" d="M1042,-122.1289C1042,-142.5724 1042,-173 1042,-173 1042,-173 3177.2646,-173 3177.2646,-173"/>
<polygon fill="#000000" stroke="#000000" points="3177.2647,-176.5001 3187.2646,-173 3177.2646,-169.5001 3177.2647,-176.5001"/>
</g>
<!-- ThingCreateComponent -->
<g id="node31" class="node">
<title>ThingCreateComponent</title>
<polygon fill="#ffffb3" stroke="#000000" points="966.8075,-122 815.1925,-122 815.1925,-86 966.8075,-86 966.8075,-122"/>
<text text-anchor="middle" x="891" y="-99.8" font-family="Times,serif" font-size="14.00" fill="#000000">ThingCreateComponent</text>
</g>
<!-- ThingCreateComponent&#45;&gt;AppModule -->
<g id="edge31" class="edge">
<title>ThingCreateComponent&#45;&gt;AppModule</title>
<path fill="none" stroke="#000000" d="M891,-122.2843C891,-143.3211 891,-175 891,-175 891,-175 3177.1775,-175 3177.1775,-175"/>
<polygon fill="#000000" stroke="#000000" points="3177.1776,-178.5001 3187.1775,-175 3177.1775,-171.5001 3177.1776,-178.5001"/>
</g>
<!-- ThingDetailComponent -->
<g id="node32" class="node">
<title>ThingDetailComponent</title>
<polygon fill="#ffffb3" stroke="#000000" points="797.4832,-122 648.5168,-122 648.5168,-86 797.4832,-86 797.4832,-122"/>
<text text-anchor="middle" x="723" y="-99.8" font-family="Times,serif" font-size="14.00" fill="#000000">ThingDetailComponent</text>
</g>
<!-- ThingDetailComponent&#45;&gt;AppModule -->
<g id="edge32" class="edge">
<title>ThingDetailComponent&#45;&gt;AppModule</title>
<path fill="none" stroke="#000000" d="M723,-122.0449C723,-143.6623 723,-177 723,-177 723,-177 3177.3358,-177 3177.3358,-177"/>
<polygon fill="#000000" stroke="#000000" points="3177.3358,-180.5001 3187.3358,-177 3177.3358,-173.5001 3177.3358,-180.5001"/>
</g>
<!-- ThingEditComponent -->
<g id="node33" class="node">
<title>ThingEditComponent</title>
<polygon fill="#ffffb3" stroke="#000000" points="630.1094,-122 491.8906,-122 491.8906,-86 630.1094,-86 630.1094,-122"/>
<text text-anchor="middle" x="561" y="-99.8" font-family="Times,serif" font-size="14.00" fill="#000000">ThingEditComponent</text>
</g>
<!-- ThingEditComponent&#45;&gt;AppModule -->
<g id="edge33" class="edge">
<title>ThingEditComponent&#45;&gt;AppModule</title>
<path fill="none" stroke="#000000" d="M561,-122.1554C561,-144.3519 561,-179 561,-179 561,-179 3177.0921,-179 3177.0921,-179"/>
<polygon fill="#000000" stroke="#000000" points="3177.0921,-182.5001 3187.0921,-179 3177.0921,-175.5001 3177.0921,-182.5001"/>
</g>
<!-- ToolbarComponent -->
<g id="node34" class="node">
<title>ToolbarComponent</title>
<polygon fill="#ffffb3" stroke="#000000" points="473.6513,-122 348.3487,-122 348.3487,-86 473.6513,-86 473.6513,-122"/>
<text text-anchor="middle" x="411" y="-99.8" font-family="Times,serif" font-size="14.00" fill="#000000">ToolbarComponent</text>
</g>
<!-- ToolbarComponent&#45;&gt;AppModule -->
<g id="edge34" class="edge">
<title>ToolbarComponent&#45;&gt;AppModule</title>
<path fill="none" stroke="#000000" d="M411,-122.2479C411,-145.0179 411,-181 411,-181 411,-181 3177.2538,-181 3177.2538,-181"/>
<polygon fill="#000000" stroke="#000000" points="3177.2538,-184.5001 3187.2538,-181 3177.2538,-177.5001 3177.2538,-184.5001"/>
</g>
<!-- AppComponent  -->
<g id="node37" class="node">
<title>AppComponent </title>
<polygon fill="#80b1d3" stroke="#000000" points="3283.439,-252 3174.561,-252 3174.561,-216 3283.439,-216 3283.439,-252"/>
<text text-anchor="middle" x="3229" y="-229.8" font-family="Times,serif" font-size="14.00" fill="#000000">AppComponent </text>
</g>
<!-- AppModule&#45;&gt;AppComponent  -->
<g id="edge36" class="edge">
<title>AppModule&#45;&gt;AppComponent </title>
<path fill="none" stroke="#000000" stroke-dasharray="1,5" d="M3229,-187.1061C3229,-187.1061 3229,-205.991 3229,-205.991"/>
<polygon fill="#000000" stroke="#000000" points="3225.5001,-205.9909 3229,-215.991 3232.5001,-205.991 3225.5001,-205.9909"/>
</g>
<!-- AppRoutingModule -->
<g id="node36" class="node">
<title>AppRoutingModule</title>
<polygon fill="#8dd3c7" stroke="#000000" points="324.2744,-122 321.2744,-126 300.2744,-126 297.2744,-122 195.7256,-122 195.7256,-86 324.2744,-86 324.2744,-122"/>
<text text-anchor="middle" x="260" y="-99.8" font-family="Times,serif" font-size="14.00" fill="#000000">AppRoutingModule</text>
</g>
<!-- AppRoutingModule&#45;&gt;AppModule -->
<g id="edge35" class="edge">
<title>AppRoutingModule&#45;&gt;AppModule</title>
<path fill="none" stroke="#000000" d="M260,-122.3228C260,-145.6602 260,-183 260,-183 260,-183 3177.3131,-183 3177.3131,-183"/>
<polygon fill="#000000" stroke="#000000" points="3177.3132,-186.5001 3187.3131,-183 3177.3131,-179.5001 3177.3132,-186.5001"/>
</g>
<!-- LocationService -->
<g id="node38" class="node">
<title>LocationService</title>
<ellipse fill="#fdb462" stroke="#000000" cx="98" cy="-104" rx="74.1354" ry="18"/>
<text text-anchor="middle" x="98" y="-99.8" font-family="Times,serif" font-size="14.00" fill="#000000">LocationService</text>
</g>
<!-- LocationService&#45;&gt;AppModule -->
<g id="edge37" class="edge">
<title>LocationService&#45;&gt;AppModule</title>
<path fill="none" stroke="#000000" d="M98,-122.3802C98,-146.2785 98,-185 98,-185 98,-185 3177.1068,-185 3177.1068,-185"/>
<polygon fill="#000000" stroke="#000000" points="3177.1069,-188.5001 3187.1068,-185 3177.1068,-181.5001 3177.1069,-188.5001"/>
</g>
</g>
</svg>
